HIERARCHY
ROOT hip
{
  OFFSET 0 90.174 2.4664
  CHANNELS 6 Xposition Yposition Zposition Zrotation Xrotation Yrotation
  JOINT abdomen
  {
    OFFSET 0 -1.186 -1.5018
    CHANNELS 6 Xposition Yposition Zposition Zrotation Xrotation Yrotation
    JOINT abdomen2
    {
      OFFSET 0 9.964 0.2134
      CHANNELS 6 Xposition Yposition Zposition Zrotation Xrotation Yrotation
      JOINT chest
      {
        OFFSET 0 13.134 -3.2573
        CHANNELS 6 Xposition Yposition Zposition Zrotation Xrotation Yrotation
        JOINT neck
        {
          OFFSET 0 20.686 -1.6905
          CHANNELS 6 Xposition Yposition Zposition Zrotation Xrotation Yrotation
          JOINT head
          {
            OFFSET 0 7.238 -0.1237
            CHANNELS 6 Xposition Yposition Zposition Zrotation Xrotation Yrotation
            End Site
            {
              OFFSET 0 0 0
            }
          }
        }
        JOINT lCollar
        {
          OFFSET 1.7069 20.075 5.0056
          CHANNELS 6 Xposition Yposition Zposition Zrotation Xrotation Yrotation
          JOINT lShldr
          {
            OFFSET 13.6458 -0.047 -4.849
            CHANNELS 6 Xposition Yposition Zposition Zrotation Xrotation Yrotation
            JOINT lForeArm
            {
              OFFSET 28.3255 -0.9759 2.2888
              CHANNELS 6 Xposition Yposition Zposition Zrotation Xrotation Yrotation
              JOINT lHand
              {
                OFFSET 22.1583 -0.53 10.8316
                CHANNELS 6 Xposition Yposition Zposition Zrotation Xrotation Yrotation
                JOINT lThumb1
                {
                  OFFSET 0.786 0.112 2.5817
                  CHANNELS 6 Xposition Yposition Zposition Zrotation Xrotation Yrotation
                  JOINT lThumb2
                  {
                    OFFSET 0.3601 -0.878 4.2331
                    CHANNELS 6 Xposition Yposition Zposition Zrotation Xrotation Yrotation
                    JOINT lThumb2_End
                    {
                      OFFSET 1.8127 -1.216 2.2227
                      CHANNELS 6 Xposition Yposition Zposition Zrotation Xrotation Yrotation
                      End Site
                      {
                        OFFSET 0.0181 -0.0122 0.0222
                      }
                    }
                  }
                }
                JOINT lCarpal1
                {
                  OFFSET 0.9571 1.114 1.7695
                  CHANNELS 6 Xposition Yposition Zposition Zrotation Xrotation Yrotation
                  JOINT lIndex1
                  {
                    OFFSET 4.1246 0.487 4.1451
                    CHANNELS 6 Xposition Yposition Zposition Zrotation Xrotation Yrotation
                    JOINT lIndex2
                    {
                      OFFSET 3.4052 -1.454 2.7682
                      CHANNELS 6 Xposition Yposition Zposition Zrotation Xrotation Yrotation
                      JOINT lIndex2_End
                      {
                        OFFSET 1.4531 -1.795 1.2713
                        CHANNELS 6 Xposition Yposition Zposition Zrotation Xrotation Yrotation
                        End Site
                        {
                          OFFSET 0.0145 -0.0179 0.0127
                        }
                      }
                    }
                  }
                  JOINT lMid1
                  {
                    OFFSET 5.6954 0.21 2.1184
                    CHANNELS 6 Xposition Yposition Zposition Zrotation Xrotation Yrotation
                    JOINT lMid2
                    {
                      OFFSET 3.9766 -1.54 2.3863
                      CHANNELS 6 Xposition Yposition Zposition Zrotation Xrotation Yrotation
                      JOINT lMid2_End
                      {
                        OFFSET 1.4042 -1.926 1.125
                        CHANNELS 6 Xposition Yposition Zposition Zrotation Xrotation Yrotation
                        End Site
                        {
                          OFFSET 0.014 -0.0193 0.0113
                        }
                      }
                    }
                  }
                }
                JOINT lCarpal2
                {
                  OFFSET 2.0956 0.66 -0.3894
                  CHANNELS 6 Xposition Yposition Zposition Zrotation Xrotation Yrotation
                  JOINT lRing1
                  {
                    OFFSET 5.0395 -0.09 2.4971
                    CHANNELS 6 Xposition Yposition Zposition Zrotation Xrotation Yrotation
                    JOINT lRing2
                    {
                      OFFSET 3.7921 -1.552 1.4806
                      CHANNELS 6 Xposition Yposition Zposition Zrotation Xrotation Yrotation
                      JOINT lRing2_End
                      {
                        OFFSET 1.4655 -1.808 0.9609
                        CHANNELS 6 Xposition Yposition Zposition Zrotation Xrotation Yrotation
                        End Site
                        {
                          OFFSET 0.0147 -0.0181 0.0096
                        }
                      }
                    }
                  }
                  JOINT lPinky1
                  {
                    OFFSET 4.9141 -1.269 0.3591
                    CHANNELS 6 Xposition Yposition Zposition Zrotation Xrotation Yrotation
                    JOINT lPinky2
                    {
                      OFFSET 3.1477 -1.685 0.8462
                      CHANNELS 6 Xposition Yposition Zposition Zrotation Xrotation Yrotation
                      JOINT lPinky2_End
                      {
                        OFFSET 0.8055 -1.585 0.7955
                        CHANNELS 6 Xposition Yposition Zposition Zrotation Xrotation Yrotation
                        End Site
                        {
                          OFFSET 0.0081 -0.0158 0.008
                        }
                      }
                    }
                  }
                }
              }
            }
          }
        }
        JOINT rCollar
        {
          OFFSET -1.7069 20.075 5.0056
          CHANNELS 6 Xposition Yposition Zposition Zrotation Xrotation Yrotation
          JOINT rShldr
          {
            OFFSET -13.6458 -0.047 -4.849
            CHANNELS 6 Xposition Yposition Zposition Zrotation Xrotation Yrotation
            JOINT rForeArm
            {
              OFFSET -28.3255 -0.9759 2.2888
              CHANNELS 6 Xposition Yposition Zposition Zrotation Xrotation Yrotation
              JOINT rHand
              {
                OFFSET -22.1583 -0.53 10.8316
                CHANNELS 6 Xposition Yposition Zposition Zrotation Xrotation Yrotation
                JOINT rThumb1
                {
                  OFFSET -0.786 0.112 2.5817
                  CHANNELS 6 Xposition Yposition Zposition Zrotation Xrotation Yrotation
                  JOINT rThumb2
                  {
                    OFFSET -0.3601 -0.878 4.2331
                    CHANNELS 6 Xposition Yposition Zposition Zrotation Xrotation Yrotation
                    JOINT rThumb2_End
                    {
                      OFFSET -1.8127 -1.216 2.2227
                      CHANNELS 6 Xposition Yposition Zposition Zrotation Xrotation Yrotation
                      End Site
                      {
                        OFFSET -0.0181 -0.0122 0.0222
                      }
                    }
                  }
                }
                JOINT rCarpal1
                {
                  OFFSET -0.9571 1.114 1.7695
                  CHANNELS 6 Xposition Yposition Zposition Zrotation Xrotation Yrotation
                  JOINT rIndex1
                  {
                    OFFSET -4.1246 0.487 4.1451
                    CHANNELS 6 Xposition Yposition Zposition Zrotation Xrotation Yrotation
                    JOINT rIndex2
                    {
                      OFFSET -3.4052 -1.454 2.7682
                      CHANNELS 6 Xposition Yposition Zposition Zrotation Xrotation Yrotation
                      JOINT rIndex2_End
                      {
                        OFFSET -1.4531 -1.795 1.2713
                        CHANNELS 6 Xposition Yposition Zposition Zrotation Xrotation Yrotation
                        End Site
                        {
                          OFFSET -0.0145 -0.018 0.0127
                        }
                      }
                    }
                  }
                  JOINT rMid1
                  {
                    OFFSET -5.6954 0.21 2.1184
                    CHANNELS 6 Xposition Yposition Zposition Zrotation Xrotation Yrotation
                    JOINT rMid2
                    {
                      OFFSET -3.9766 -1.54 2.3863
                      CHANNELS 6 Xposition Yposition Zposition Zrotation Xrotation Yrotation
                      JOINT rMid2_End
                      {
                        OFFSET -1.4042 -1.926 1.125
                        CHANNELS 6 Xposition Yposition Zposition Zrotation Xrotation Yrotation
                        End Site
                        {
                          OFFSET -0.014 -0.0193 0.0113
                        }
                      }
                    }
                  }
                }
                JOINT rCarpal2
                {
                  OFFSET -2.0956 0.66 -0.3894
                  CHANNELS 6 Xposition Yposition Zposition Zrotation Xrotation Yrotation
                  JOINT rRing1
                  {
                    OFFSET -5.0395 -0.09 2.4971
                    CHANNELS 6 Xposition Yposition Zposition Zrotation Xrotation Yrotation
                    JOINT rRing2
                    {
                      OFFSET -3.7921 -1.552 1.4806
                      CHANNELS 6 Xposition Yposition Zposition Zrotation Xrotation Yrotation
                      JOINT rRing2_End
                      {
                        OFFSET -1.4655 -1.808 0.9609
                        CHANNELS 6 Xposition Yposition Zposition Zrotation Xrotation Yrotation
                        End Site
                        {
                          OFFSET -0.0147 -0.0181 0.0096
                        }
                      }
                    }
                  }
                  JOINT rPinky1
                  {
                    OFFSET -4.9141 -1.269 0.3592
                    CHANNELS 6 Xposition Yposition Zposition Zrotation Xrotation Yrotation
                    JOINT rPinky2
                    {
                      OFFSET -3.1477 -1.685 0.8462
                      CHANNELS 6 Xposition Yposition Zposition Zrotation Xrotation Yrotation
                      JOINT rPinky2_End
                      {
                        OFFSET -0.8055 -1.585 0.7955
                        CHANNELS 6 Xposition Yposition Zposition Zrotation Xrotation Yrotation
                        End Site
                        {
                          OFFSET -0.0081 -0.0158 0.008
                        }
                      }
                    }
                  }
                }
              }
            }
          }
        }
      }
    }
  }
  JOINT lThigh
  {
    OFFSET 8.367 -8.2066 0.5982
    CHANNELS 6 Xposition Yposition Zposition Zrotation Xrotation Yrotation
    JOINT lShin
    {
      OFFSET 2.1923 -43.463 -0.4932
      CHANNELS 6 Xposition Yposition Zposition Zrotation Xrotation Yrotation
      JOINT lFoot
      {
        OFFSET 0.7333 -45.8593 -2.6451
        CHANNELS 6 Xposition Yposition Zposition Zrotation Xrotation Yrotation
        End Site
        {
          OFFSET 2.6618 -4.2699 12.3931
        }
      }
    }
  }
  JOINT rThigh
  {
    OFFSET -8.367 -8.2066 0.5982
    CHANNELS 6 Xposition Yposition Zposition Zrotation Xrotation Yrotation
    JOINT rShin
    {
      OFFSET -2.1923 -43.463 -0.4931
      CHANNELS 6 Xposition Yposition Zposition Zrotation Xrotation Yrotation
      JOINT rFoot
      {
        OFFSET -0.7333 -45.8593 -2.6451
        CHANNELS 6 Xposition Yposition Zposition Zrotation Xrotation Yrotation
        End Site
        {
          OFFSET -2.6618 -4.2699 12.3931
        }
      }
    }
  }
}
MOTION
Frames:	4
Frame Time:	0.0333333
-2.20662 83.1602 -7.50129 180 -6.72216 -7.01669e-015 0 -1.186 -1.5018 -0.0393067 2.38948 -0.276901 4.44089e-016 9.964 0.2134 -0.067131 4.77912 -0.552882 -4.44089e-016 13.134 -3.2573 -0.067131 4.77912 -0.552881 0 20.686 -1.6905 1.13545e-006 48.9962 -1.35949e-007 4.44089e-016 7.238 -0.1237 -8.22217e-007 -81.0673 -9.17153e-007 1.7069 20.075 5.0056 -16.9574 -1.87384 10.852 13.6458 -0.047 -4.849 0.812428 0.825809 -67.0705 28.3255 -0.9759 2.2888 -18.1777 -6.35219 -32.9117 22.1583 -0.53 10.8316 -46.1181 -20.3885 -35.5507 0.786 0.112 2.5817 -3.18629e-031 -1.31198e-014 -1.39149e-015 0.3601 -0.878 4.2331 3.34127e-006 -1.90586e-007 1.252e-006 1.8127 -1.216 2.2227 -1.27222e-014 5.76476e-015 -4.17448e-015 0.9571 1.114 1.7695 -4.82771e-032 -1.98785e-015 -1.39149e-015 4.1246 0.487 4.1451 6.18637e-031 -7.7526e-015 4.57205e-015 3.4052 -1.454 2.7682 3.34127e-006 -1.90586e-007 1.252e-006 1.4531 -1.795 1.2713 3.18055e-015 2.18663e-015 -0 5.6954 0.21 2.1184 6.18637e-031 -7.7526e-015 4.57205e-015 3.9766 -1.54 2.3863 3.34127e-006 -1.90586e-007 1.252e-006 1.4042 -1.926 1.125 3.18055e-015 2.18663e-015 -0 2.0956 0.66 -0.3894 -4.82771e-032 -1.98785e-015 -1.39149e-015 5.0395 -0.09 2.4971 6.18637e-031 -7.7526e-015 4.57205e-015 3.7921 -1.552 1.4806 3.34127e-006 -1.90586e-007 1.252e-006 1.4655 -1.808 0.9609 3.18055e-015 2.18663e-015 -0 4.9141 -1.269 0.3591 6.18637e-031 -7.7526e-015 4.57205e-015 3.1477 -1.685 0.8462 3.34127e-006 -1.90586e-007 1.252e-006 0.8055 -1.585 0.7955 3.18055e-015 2.18663e-015 -0 -1.7069 20.075 5.0056 17.1201 -2.39871 -12.0776 -13.6458 -0.047 -4.849 -0.764524 1.03112 67.8384 -28.3255 -0.9759 2.2888 16.9915 -7.27648 33.444 -22.1583 -0.53 10.8316 46.2324 -21.5011 33.2991 -0.786 0.112 2.5817 -3.28956e-006 -1.86689e-007 -1.21703e-006 -0.3601 -0.878 4.2331 3.18055e-015 -1.59028e-015 -3.18055e-015 -1.8127 -1.216 2.2227 -3.28956e-006 -1.86689e-007 -1.21703e-006 -0.9571 1.114 1.7695 3.18055e-015 -1.98785e-015 -1.59028e-015 -4.1246 0.487 4.1451 -3.28956e-006 -1.86689e-007 -1.21703e-006 -3.4052 -1.454 2.7682 3.18055e-015 -7.95139e-016 -2.38542e-015 -1.4531 -1.795 1.2713 -3.28956e-006 -1.86689e-007 -1.21703e-006 -5.6954 0.21 2.1184 -3.28956e-006 -1.86689e-007 -1.21703e-006 -3.9766 -1.54 2.3863 3.18055e-015 -7.95139e-016 -2.38542e-015 -1.4042 -1.926 1.125 -3.28956e-006 -1.86689e-007 -1.21703e-006 -2.0956 0.66 -0.3894 3.18055e-015 -1.98785e-015 -1.59028e-015 -5.0395 -0.09 2.4971 -3.28956e-006 -1.86689e-007 -1.21703e-006 -3.7921 -1.552 1.4806 3.18055e-015 -7.95139e-016 -2.38542e-015 -1.4655 -1.808 0.9609 -3.28956e-006 -1.86689e-007 -1.21703e-006 -4.9141 -1.269 0.3592 -3.28956e-006 -1.86689e-007 -1.21703e-006 -3.1477 -1.685 0.8462 3.18055e-015 -7.95139e-016 -2.38542e-015 -0.8055 -1.585 0.7955 -3.28956e-006 -1.86689e-007 -1.21703e-006 8.367 -8.2066 0.5982 45.4548 -59.0331 28.6678 2.1923 -43.463 -0.4932 -85.1877 24.0037 76.3257 0.7333 -45.8593 -2.6451 43.9577 49.6676 -41.7635 -8.367 -8.2066 0.5982 -51.4038 -70.1976 -28.7333 -2.1923 -43.463 -0.4931 96.5735 34.2081 -82.4099 -0.7333 -45.8593 -2.6451 -37.2354 52.0235 39.6084 
-2.13204 83.0456 -7.29188 180 -6.37472 -7.01671e-015 0 -1.186 -1.5018 -0.0378132 2.14194 -0.277269 4.44089e-016 9.964 0.2134 -0.0653134 4.28407 -0.553703 -4.44089e-016 13.134 -3.2573 -0.0653135 4.28407 -0.553703 -4.44089e-016 20.686 -1.6905 1.33202e-005 48.9964 -1.68874e-005 4.44089e-016 7.238 -0.1237 -5.18151e-007 -79.8789 -6.52448e-007 1.7069 20.075 5.0056 -17.2224 -1.23455 10.84 13.6458 -0.047 -4.849 0.812426 0.825814 -67.0705 28.3255 -0.9759 2.2888 -17.9996 -6.56544 -32.1549 22.1583 -0.53 10.8316 -46.4594 -19.8817 -35.6578 0.786 0.112 2.5817 3.34032e-006 -1.89228e-007 1.25488e-006 0.3601 -0.878 4.2331 1.17934e-031 3.77691e-015 -1.78906e-015 1.8127 -1.216 2.2227 3.34032e-006 -1.89228e-007 1.25488e-006 0.9571 1.114 1.7695 6.36111e-015 -3.97569e-015 -3.37934e-015 4.1246 0.487 4.1451 3.34032e-006 -1.89228e-007 1.25488e-006 3.4052 -1.454 2.7682 -3.18055e-015 2.78299e-015 -7.95139e-016 1.4531 -1.795 1.2713 3.34032e-006 -1.89228e-007 1.25488e-006 5.6954 0.21 2.1184 3.34032e-006 -1.89228e-007 1.25488e-006 3.9766 -1.54 2.3863 -3.18055e-015 2.78299e-015 -7.95139e-016 1.4042 -1.926 1.125 3.34032e-006 -1.89228e-007 1.25488e-006 2.0956 0.66 -0.3894 6.36111e-015 -3.97569e-015 -3.37934e-015 5.0395 -0.09 2.4971 3.34032e-006 -1.89228e-007 1.25488e-006 3.7921 -1.552 1.4806 -3.18055e-015 2.78299e-015 -7.95139e-016 1.4655 -1.808 0.9609 3.34032e-006 -1.89228e-007 1.25488e-006 4.9141 -1.269 0.3591 3.34032e-006 -1.89228e-007 1.25488e-006 3.1477 -1.685 0.8462 -3.18055e-015 2.78299e-015 -7.95139e-016 0.8055 -1.585 0.7955 3.34032e-006 -1.89228e-007 1.25488e-006 -1.7069 20.075 5.0056 17.3754 -1.76121 -11.9911 -13.6458 -0.047 -4.849 -0.764524 1.03112 67.8384 -28.3255 -0.9759 2.2888 16.7817 -7.4974 32.5853 -22.1583 -0.53 10.8316 46.6004 -20.9447 33.4463 -0.786 0.112 2.5817 -1.14602e-006 -6.35497e-007 1.07135e-006 -0.3601 -0.878 4.2331 -5.98472e-006 4.88274e-006 -7.40501e-007 -1.8127 -1.216 2.2227 -4.28073e-006 -1.30441e-006 2.71226e-007 -0.9571 1.114 1.7695 3.47595e-031 5.56597e-015 -3.57812e-015 -4.1246 0.487 4.1451 -1.14602e-006 -6.35497e-007 1.07135e-006 -3.4052 -1.454 2.7682 -5.98472e-006 4.88274e-006 -7.40501e-007 -1.4531 -1.795 1.2713 -4.28073e-006 -1.30441e-006 2.71226e-007 -5.6954 0.21 2.1184 -1.14602e-006 -6.35497e-007 1.07135e-006 -3.9766 -1.54 2.3863 -5.98472e-006 4.88274e-006 -7.40501e-007 -1.4042 -1.926 1.125 -4.28073e-006 -1.30441e-006 2.71226e-007 -2.0956 0.66 -0.3894 3.47595e-031 5.56597e-015 -3.57812e-015 -5.0395 -0.09 2.4971 -1.14602e-006 -6.35497e-007 1.07135e-006 -3.7921 -1.552 1.4806 -5.98472e-006 4.88274e-006 -7.40501e-007 -1.4655 -1.808 0.9609 -4.28073e-006 -1.30441e-006 2.71226e-007 -4.9141 -1.269 0.3592 -1.14602e-006 -6.35497e-007 1.07135e-006 -3.1477 -1.685 0.8462 -5.98472e-006 4.88274e-006 -7.40501e-007 -0.8055 -1.585 0.7955 -4.28073e-006 -1.30441e-006 2.71226e-007 8.367 -8.2066 0.5982 45.8659 -59.4161 28.7613 2.1923 -43.463 -0.4932 -85.1835 24.0033 76.3191 0.7333 -45.8593 -2.6451 43.2892 49.6549 -41.3444 -8.367 -8.2066 0.5982 -51.5915 -70.4499 -28.9003 -2.1923 -43.463 -0.4931 96.5734 34.2081 -82.4084 -0.7333 -45.8593 -2.6451 -36.9565 51.8766 39.3311 
-2.06545 82.9435 -7.10485 180 -6.06378 -7.01671e-015 0 -1.186 -1.5018 -0.0364757 1.92044 -0.277569 4.44089e-016 9.964 0.2134 -0.0636897 3.84105 -0.554381 -4.44089e-016 13.134 -3.2573 -0.0636897 3.84105 -0.554381 0 20.686 -1.6905 8.8411e-006 48.9964 -1.60163e-005 0 7.238 -0.1237 1.18394e-006 -78.8155 9.87529e-007 1.7069 20.075 5.0056 -17.459 -0.663241 10.8318 13.6458 -0.047 -4.849 0.812422 0.825811 -67.0705 28.3255 -0.9759 2.2888 -17.8381 -6.75372 -31.4774 22.1583 -0.53 10.8316 -46.7625 -19.4281 -35.7501 0.786 0.112 2.5817 2.16863e-006 3.8764e-007 2.34174e-006 0.3601 -0.878 4.2331 -2.16863e-006 -3.8764e-007 -2.34174e-006 1.8127 -1.216 2.2227 2.16863e-006 3.8764e-007 2.34174e-006 0.9571 1.114 1.7695 -8.27607e-032 2.98177e-015 1.59028e-015 4.1246 0.487 4.1451 2.16863e-006 3.8764e-007 2.34174e-006 3.4052 -1.454 2.7682 -2.16863e-006 -3.8764e-007 -2.34174e-006 1.4531 -1.795 1.2713 2.16863e-006 3.8764e-007 2.34174e-006 5.6954 0.21 2.1184 2.16863e-006 3.8764e-007 2.34174e-006 3.9766 -1.54 2.3863 -2.16863e-006 -3.8764e-007 -2.34174e-006 1.4042 -1.926 1.125 2.16863e-006 3.8764e-007 2.34174e-006 2.0956 0.66 -0.3894 -8.27607e-032 2.98177e-015 1.59028e-015 5.0395 -0.09 2.4971 2.16863e-006 3.8764e-007 2.34174e-006 3.7921 -1.552 1.4806 -2.16863e-006 -3.8764e-007 -2.34174e-006 1.4655 -1.808 0.9609 2.16863e-006 3.8764e-007 2.34174e-006 4.9141 -1.269 0.3591 2.16863e-006 3.8764e-007 2.34174e-006 3.1477 -1.685 0.8462 -2.16863e-006 -3.8764e-007 -2.34174e-006 0.8055 -1.585 0.7955 2.16863e-006 3.8764e-007 2.34174e-006 -1.7069 20.075 5.0056 17.6027 -1.19123 -11.9163 -13.6458 -0.047 -4.849 -0.764526 1.03112 67.8383 -28.3255 -0.9759 2.2888 16.5914 -7.69178 31.8166 -22.1583 -0.53 10.8316 46.9266 -20.4464 33.5739 -0.786 0.112 2.5817 -2.29435e-006 -1.26974e-006 2.14083e-006 -0.3601 -0.878 4.2331 -6.57602e-006 -3.67684e-007 -2.44788e-006 -1.8127 -1.216 2.2227 -3.18055e-015 4.77083e-015 -3.97569e-016 -0.9571 1.114 1.7695 -3.18055e-015 -3.57812e-015 1.59028e-015 -4.1246 0.487 4.1451 -2.29435e-006 -1.26974e-006 2.14083e-006 -3.4052 -1.454 2.7682 -6.57602e-006 -3.67684e-007 -2.44788e-006 -1.4531 -1.795 1.2713 5.51738e-032 -1.59028e-015 1.98785e-015 -5.6954 0.21 2.1184 -2.29435e-006 -1.26974e-006 2.14083e-006 -3.9766 -1.54 2.3863 -6.57602e-006 -3.67684e-007 -2.44788e-006 -1.4042 -1.926 1.125 5.51738e-032 -1.59028e-015 1.98785e-015 -2.0956 0.66 -0.3894 -3.18055e-015 -3.57812e-015 1.59028e-015 -5.0395 -0.09 2.4971 -2.29435e-006 -1.26974e-006 2.14083e-006 -3.7921 -1.552 1.4806 -6.57602e-006 -3.67684e-007 -2.44788e-006 -1.4655 -1.808 0.9609 5.51738e-032 -1.59028e-015 1.98785e-015 -4.9141 -1.269 0.3592 -2.29435e-006 -1.26974e-006 2.14083e-006 -3.1477 -1.685 0.8462 -6.57602e-006 -3.67684e-007 -2.44788e-006 -0.8055 -1.585 0.7955 5.51738e-032 -1.59028e-015 1.98785e-015 8.367 -8.2066 0.5982 46.2384 -59.7578 28.8505 2.1923 -43.463 -0.4932 -85.1798 24.0029 76.3133 0.7333 -45.8593 -2.6451 42.6923 49.6405 -40.9704 -8.367 -8.2066 0.5982 -51.763 -70.6751 -29.0532 -2.1923 -43.463 -0.4931 96.5732 34.208 -82.4069 -0.7333 -45.8593 -2.6451 -36.709 51.7448 39.0851 
-1.9989 82.8415 -6.91792 180 -5.75291 -7.01671e-015 -2.22045e-016 -1.186 -1.5018 -0.0351363 1.69862 -0.277851 0 9.964 0.2134 -0.062068 3.39737 -0.555024 2.22045e-016 13.134 -3.2573 -0.0620681 3.39738 -0.555024 0 20.686 -1.6905 -6.08608e-006 48.9964 8.27785e-006 0 7.238 -0.1237 -1.54134e-006 -77.7506 -1.68025e-006 1.7069 20.075 5.0056 -17.6957 -0.0917281 10.826 13.6458 -0.047 -4.849 0.812424 0.825811 -67.0705 28.3255 -0.9759 2.2888 -17.6741 -6.9402 -30.7988 22.1583 -0.53 10.8316 -47.064 -18.974 -35.8397 0.786 0.112 2.5817 -3.18055e-015 -3.97569e-016 1.19271e-015 0.3601 -0.878 4.2331 6.67742e-006 -3.74046e-007 2.51996e-006 1.8127 -1.216 2.2227 -9.95243e-007 -9.638e-007 -3.42696e-006 0.9571 1.114 1.7695 -3.18055e-015 1.19271e-015 1.19271e-015 4.1246 0.487 4.1451 -3.18055e-015 3.97569e-016 3.37934e-015 3.4052 -1.454 2.7682 6.67742e-006 -3.74046e-007 2.51996e-006 1.4531 -1.795 1.2713 -9.95243e-007 -9.638e-007 -3.42696e-006 5.6954 0.21 2.1184 -3.18055e-015 3.97569e-016 3.37934e-015 3.9766 -1.54 2.3863 6.67742e-006 -3.74046e-007 2.51996e-006 1.4042 -1.926 1.125 -9.95243e-007 -9.638e-007 -3.42696e-006 2.0956 0.66 -0.3894 -3.18055e-015 1.19271e-015 1.19271e-015 5.0395 -0.09 2.4971 -3.18055e-015 3.97569e-016 3.37934e-015 3.7921 -1.552 1.4806 6.67742e-006 -3.74046e-007 2.51996e-006 1.4655 -1.808 0.9609 -9.95243e-007 -9.638e-007 -3.42696e-006 4.9141 -1.269 0.3591 -3.18055e-015 3.97569e-016 3.37934e-015 3.1477 -1.685 0.8462 6.67742e-006 -3.74046e-007 2.51996e-006 0.8055 -1.585 0.7955 -9.95243e-007 -9.638e-007 -3.42696e-006 -1.7069 20.075 5.0056 17.8293 -0.620764 -11.8437 -13.6458 -0.047 -4.849 -0.764526 1.03112 67.8384 -28.3255 -0.9759 2.2888 16.3982 -7.88377 31.0463 -22.1583 -0.53 10.8316 47.2507 -19.9473 33.698 -0.786 0.112 2.5817 -7.47781e-006 -4.64324e-006 -4.99127e-006 -0.3601 -0.878 4.2331 2.29668e-006 1.26844e-006 -2.13898e-006 -1.8127 -1.216 2.2227 -2.29668e-006 -1.26844e-006 2.13898e-006 -0.9571 1.114 1.7695 -9.54166e-015 7.95139e-016 1.98785e-015 -4.1246 0.487 4.1451 -7.47781e-006 -4.64324e-006 -4.99127e-006 -3.4052 -1.454 2.7682 2.29668e-006 1.26844e-006 -2.13898e-006 -1.4531 -1.795 1.2713 -2.29668e-006 -1.26844e-006 2.13898e-006 -5.6954 0.21 2.1184 -7.47781e-006 -4.64324e-006 -4.99127e-006 -3.9766 -1.54 2.3863 2.29668e-006 1.26844e-006 -2.13898e-006 -1.4042 -1.926 1.125 -2.29668e-006 -1.26844e-006 2.13898e-006 -2.0956 0.66 -0.3894 -9.54166e-015 7.95139e-016 1.98785e-015 -5.0395 -0.09 2.4971 -7.47781e-006 -4.64324e-006 -4.99127e-006 -3.7921 -1.552 1.4806 2.29668e-006 1.26844e-006 -2.13898e-006 -1.4655 -1.808 0.9609 -2.29668e-006 -1.26844e-006 2.13898e-006 -4.9141 -1.269 0.3592 -7.47781e-006 -4.64324e-006 -4.99127e-006 -3.1477 -1.685 0.8462 2.29668e-006 1.26844e-006 -2.13898e-006 -0.8055 -1.585 0.7955 -2.29668e-006 -1.26844e-006 2.13898e-006 8.367 -8.2066 0.5982 46.6161 -60.0993 28.9451 2.1923 -43.463 -0.4932 -85.1763 24.0026 76.3077 0.7333 -45.8593 -2.6451 42.0956 49.6234 -40.5968 -8.367 -8.2066 0.5982 -51.9384 -70.9001 -29.21 -2.1923 -43.463 -0.4931 96.573 34.2079 -82.4053 -0.7333 -45.8593 -2.6451 -36.4632 51.6124 38.8407 
